<?xml version="1.0" ?>
<svg id="Icons" xmlns="http://www.w3.org/2000/svg" viewBox="0 0 32 32" xml:space="preserve">
  <g>
    <path fill="#595959" d="M21.3,29c-1.1,0-2.2-0.4-3-1.3c-1.3-1.3-1.6-3.2-0.8-4.8l-8.3-8.3c-1.6,0.7-3.6,0.4-4.8-0.8
    c-1.7-1.7-1.7-4.4,0-6.1c0.6-0.6,1.4-1,2.2-1.2C6.6,5.6,7,4.9,7.6,4.3C8.4,3.5,9.5,3,10.7,3c1.1,0,2.2,0.4,3,1.3
    c1.3,1.3,1.6,3.2,0.8,4.8l8.3,8.3c1.6-0.7,3.6-0.4,4.8,0.8c1.7,1.7,1.7,4.4,0,6.1c-0.6,0.6-1.4,1-2.2,1.2
    c-0.2,0.8-0.6,1.6-1.2,2.2C23.6,28.5,22.5,29,21.3,29z"/>
  </g>
  <g>
    <path fill="#595959" d="M14.5,12.1l5.4,5.4l2.9-2.9c1.6,0.7,3.6,0.4,4.8-0.8c1.7-1.7,1.7-4.4,0-6.1c-0.6-0.6-1.4-1-2.2-1.2
    c-0.2-0.8-0.6-1.6-1.2-2.2c-0.8-0.8-1.9-1.3-3-1.3c-1.1,0-2.2,0.4-3,1.3c-1.3,1.3-1.6,3.2-0.8,4.8L14.5,12.1z"/>
    <path fill="#595959" d="M9,17.4c-1.6-0.6-3.4-0.3-4.7,0.9c-1.7,1.7-1.7,4.4,0,6.1c0.6,0.6,1.4,1,2.2,1.2
    c0.2,0.8,0.6,1.6,1.2,2.2c0.8,0.8,1.9,1.3,3,1.3c1.1,0,2.2-0.4,3-1.3c1.2-1.2,1.6-3.1,0.9-4.7L9,17.4z"/>
  </g>
</svg>