<?xml version="1.0" encoding="iso-8859-1"?>
<!-- Uploaded to: SVG Repo, www.svgrepo.com, Generator: SVG Repo Mixer Tools -->
<svg fill="#595959" height="800px" width="800px" version="1.1" id="Layer_1" xmlns="http://www.w3.org/2000/svg" xmlns:xlink="http://www.w3.org/1999/xlink" 
	 viewBox="0 0 512.001 512.001" xml:space="preserve">
<g>
	<g>
		<path d="M289.418,342.122l-20.215-35.014c-1.588-2.75-4.521-4.444-7.697-4.444c-3.176,0-6.109,1.693-7.697,4.444l-20.216,35.014
			c-4.919,8.52-4.919,18.693,0,27.213s13.729,13.607,23.567,13.607h8.691c9.838,0,18.648-5.086,23.567-13.607
			S294.337,350.643,289.418,342.122z M274.024,360.448c-0.819,1.418-3.255,4.719-8.173,4.719h-8.691c-4.918,0-7.354-3.3-8.173-4.719
			c-0.819-1.419-2.459-5.179,0-9.438l12.519-21.682l12.519,21.682C276.484,355.269,274.844,359.028,274.024,360.448z"/>
	</g>
</g>
<g>
	<g>
		<path d="M232.569,288.511l-62.582-62.581v-56.66c0-4.908-3.979-8.888-8.888-8.888c-4.908,0-8.888,3.979-8.888,8.888v44.927
			c-7.704-2.317-16.113-1.967-24.088,1.314c-13.589,5.591-22.074,18.15-22.145,32.777c-0.096,19.943,7.617,38.691,21.719,52.793
			c7.126,7.126,15.45,12.612,24.514,16.294v22.712c0,4.908,3.979,8.888,8.888,8.888s8.888-3.979,8.888-8.888v-17.986
			c3.336,0.454,6.721,0.7,10.146,0.7c19.807,0,38.429-7.713,52.435-21.719c1.667-1.669,2.604-3.928,2.604-6.287
			C235.172,292.439,234.236,290.177,232.569,288.511z M180.134,305.025c-15.059,0-29.218-5.865-39.867-16.513
			c-10.721-10.721-16.586-24.976-16.512-40.138c0.036-7.431,4.197-13.57,11.132-16.423c2.094-0.862,4.573-1.415,7.191-1.415
			c4.228,0,8.819,1.442,12.738,5.36l58.411,58.411C203.664,301.267,192.187,305.025,180.134,305.025z"/>
	</g>
</g>
<g>
	<g>
		<path d="M383.881,215.511c-7.975-3.281-16.384-3.631-24.088-1.314V169.27c0-4.908-3.979-8.888-8.888-8.888
			s-8.888,3.979-8.888,8.888v56.66l-62.581,62.582c-1.667,1.666-2.604,3.927-2.604,6.284c0,2.357,0.936,4.618,2.604,6.284
			c14.006,14.006,32.629,21.719,52.435,21.719c3.425,0,6.81-0.246,10.146-0.7v17.986c0,4.908,3.979,8.888,8.888,8.888
			c4.908,0,8.888-3.979,8.888-8.888v-22.712c9.063-3.681,17.388-9.169,24.514-16.294c14.102-14.102,21.815-32.85,21.719-52.793
			C405.954,233.661,397.47,221.102,383.881,215.511z M371.737,288.511c-10.649,10.649-24.806,16.513-39.867,16.513
			c-12.053,0-23.53-3.758-33.092-10.717l58.411-58.411c6.345-6.345,14.455-6.198,19.929-3.946
			c6.935,2.852,11.097,8.992,11.132,16.423C388.322,263.536,382.458,277.79,371.737,288.511z"/>
	</g>
</g>
<g>
	<g>
		<path d="M446.747,240.834c-5.718-5.209-8.333-12.631-6.998-19.854c2.256-12.206,3.297-24.733,3.092-37.234
			c-0.803-48.982-20.573-95.043-55.67-129.699C352.079,19.395,305.772,0.201,256.78,0.001C256.516,0,256.259,0,255.996,0
			C206.222,0,159.421,19.323,124.14,54.46c-35.469,35.325-55.003,82.347-55.003,132.405c0,11.468,1.052,22.964,3.127,34.166
			c1.331,7.19-1.289,14.594-7.009,19.805c-17.484,15.93-26.939,38.641-25.942,62.309c1.712,40.63,34.865,74.057,75.475,76.1
			c2.937,0.148,5.901,0.136,8.815-0.036c1.604-0.095,3.139,0.461,4.31,1.564c1.168,1.102,1.812,2.594,1.812,4.203v18.326
			c0,5.298,3.117,10.119,7.939,12.278c4.336,1.943,8.714,3.761,13.12,5.48v45.534c0,14.099,8.984,26.714,22.353,31.39
			c26.718,9.344,54.791,14.015,82.865,14.015c28.072,0,56.146-4.671,82.863-14.015c13.37-4.676,22.353-17.291,22.353-31.39v-45.535
			c4.406-1.718,8.782-3.536,13.118-5.478c4.823-2.16,7.94-6.98,7.94-12.278v-18.326c0-1.608,0.643-3.101,1.812-4.203
			c1.171-1.103,2.709-1.661,4.31-1.564c2.918,0.172,5.884,0.182,8.82,0.036c40.61-2.045,73.76-35.474,75.471-76.104
			C473.686,279.473,464.231,256.764,446.747,240.834z M332.997,481.206c-49.649,17.364-104.338,17.364-153.991,0
			c-6.247-2.185-10.446-8.057-10.446-14.611v-39.267c5.868,1.858,11.782,3.525,17.732,5.001v23.909c0,4.908,3.979,8.888,8.888,8.888
			s8.888-3.979,8.888-8.888v-20.082c7.555,1.376,15.151,2.446,22.773,3.215v28.992c0,4.908,3.979,8.888,8.888,8.888
			s8.888-3.979,8.888-8.888v-27.759c3.794,0.149,7.59,0.248,11.386,0.248c3.796,0,7.591-0.1,11.386-0.249v27.761
			c0,4.908,3.979,8.888,8.888,8.888s8.888-3.979,8.888-8.888v-28.994c7.621-0.77,15.218-1.84,22.773-3.216v20.085
			c0,4.908,3.979,8.888,8.888,8.888s8.888-3.979,8.888-8.888v-23.912c5.951-1.474,11.865-3.141,17.732-5v39.268h0.001
			C343.443,473.149,339.246,479.021,332.997,481.206z M454.931,302.392c-1.328,31.551-27.071,57.511-58.607,59.1
			c-2.292,0.115-4.609,0.107-6.883-0.027c-6.457-0.38-12.848,1.946-17.547,6.377c-4.699,4.43-7.392,10.676-7.392,17.134v15.518
			c-12.647,5.509-25.617,9.999-38.79,13.493v-27.809c0-4.908-3.979-8.888-8.888-8.888c-4.908,0-8.888,3.979-8.888,8.888v31.877
			c-7.55,1.468-15.147,2.62-22.773,3.441v-23.193c0-4.908-3.979-8.888-8.888-8.888c-4.908,0-8.888,3.979-8.888,8.888v24.517
			c-7.588,0.318-15.184,0.318-22.772,0v-24.517c0-4.908-3.979-8.888-8.888-8.888c-4.908,0-8.888,3.979-8.888,8.888v23.193
			c-7.626-0.821-15.223-1.973-22.773-3.441v-31.877c0-4.908-3.979-8.888-8.888-8.888c-4.908,0-8.888,3.979-8.888,8.888v27.809
			c-13.173-3.493-26.144-7.984-38.79-13.493v-15.518c0-6.46-2.694-12.705-7.392-17.134c-4.7-4.432-11.089-6.758-17.548-6.377
			c-2.271,0.134-4.586,0.143-6.88,0.027c-31.534-1.587-57.277-27.545-58.608-59.096c-0.775-18.395,6.57-36.044,20.154-48.42
			c10.294-9.38,14.973-22.905,12.515-36.181c-1.877-10.138-2.83-20.544-2.83-30.928c0-45.295,17.676-87.845,49.771-119.809
			c31.924-31.797,74.27-49.281,119.311-49.281c0.235,0,0.474,0,0.71,0.001c44.314,0.18,86.211,17.554,117.976,48.919
			c31.766,31.367,49.66,73.039,50.386,117.342c0.186,11.322-0.756,22.664-2.798,33.711c-2.46,13.307,2.215,26.849,12.506,36.225
			C448.358,266.35,455.704,283.998,454.931,302.392z"/>
	</g>
</g>
</svg>